<mxfile
  host="Electron" 
  agent="Mozilla/5.0 (Macintosh; Intel Mac OS X 10_15_7) AppleWebKit/537.36 (KHTML, like Gecko) draw.io/25.0.2 Chrome/128.0.6613.186 Electron/32.2.5 Safari/537.36" 
  version="25.0.2"
  >
  <diagram
    name="-"
    >
    <mxGraphModel
      grid="1" 
      gridSize="10" 
      guides="1" 
      tooltips="1" 
      connect="1" 
      arrows="1" 
      fold="1" 
      page="1" 
      pageScale="1" 
      pageWidth="1" 
      pageHeight="1" 
      math="0" 
      shadow="0"
      >
      <root>
        <mxCell
          id="page"
          />
        <mxCell
          id="root" 
          parent="page"
          />
        <mxCell
          style="verticalAlign=top;aspect=fixed;align=center;spacingLeft=5;spacingRight=5;spacingBottom=5;strokeColor=none;" 
          id="shape_" 
          parent="root" 
          value=" " 
          vertex="1"
          >
          <mxGeometry
            as="geometry" 
            width="21" 
            height="193" 
            x="0" 
            y="0"
            />
          </mxCell>
        <mxCell
          style="rounded=1;fillColor=#F0F2F5;strokeColor=#D8DCE3;fontColor=#000000;align=left;verticalAlign=middle;fontStyle=0;fontSize=12;labelPosition=right;verticalLabelPosition=middle;spacingLeft=10;html=1;shadow=0;dashed=0;sketch=0;hachureGap=4;pointerEvents=0;fontFamily=Architects Daughter;fontSource=https%3A%2F%2Ffonts.googleapis.com%2Fcss%3Ffamily%3DArchitects%2BDaughter;" 
          id="checkbox_group2_" 
          parent="shape_" 
          value=" " 
          vertex="1"
          >
          <mxGeometry
            width="1" 
            height="173" 
            as="geometry" 
            x="10" 
            y="10"
            />
          </mxCell>
        </root>
      </mxGraphModel>
    </diagram>
  </mxfile>